<?xml version="1.0" encoding="UTF-8"?>
<svg width="16px" height="16px" viewBox="0 0 16 16" version="1.1" xmlns="http://www.w3.org/2000/svg" xmlns:xlink="http://www.w3.org/1999/xlink">
    <!-- Generator: Sketch 43.2 (39069) - http://www.bohemiancoding.com/sketch -->
    <title>email--white</title>
    <desc>Created with Sketch.</desc>
    <defs></defs>
    <g id="Page-1" stroke="none" stroke-width="1" fill="none" fill-rule="evenodd">
        <g id="email--white" fill="#FFFFFF">
            <path d="M4.30769231,9.87777778 C4.30769231,8.57863248 5.09401709,7.67264957 7.04273504,7.34786325 L8.68376068,7.07435898 C9.5042735,6.93760684 9.77777778,6.86923077 9.77777778,6.45897436 C9.77777778,5.36495727 9.23076923,4.74957265 8,4.74957265 C6.76923077,4.74957265 6.15384615,5.33076923 6.08547009,6.32222222 L4.64957265,6.32222222 C4.71794872,4.74957265 5.8974359,3.51880342 7.93162393,3.51880342 C10.1880342,3.51880342 11.2820513,4.68119658 11.2820513,6.66410257 L11.2820513,9.24529915 C11.2820513,10.8350427 11.965812,11.1769231 12.6495726,11.1769231 C13.6410256,11.1769231 14.7008547,10.048718 14.7008547,7.41623932 C14.7008547,3.55299145 11.8632479,1.1940171 8.06837607,1.1940171 C3.93162393,1.1940171 1.2991453,4.23675214 1.2991453,8.1 C1.2991453,11.9632479 3.93162393,14.8692308 7.86324786,14.8692308 C9.1965812,14.8692308 10.5982906,14.4760684 11.4871795,13.5700855 L13.1965812,13.5700855 C11.982906,15.125641 10.1196581,15.9632479 7.86324786,15.9632479 C3.17948718,15.9632479 0,12.5444444 0,8.1 C0,3.65555556 3.17948718,0.100000001 8.06837607,0.100000001 C12.6153846,0.100000001 16,2.97179487 16,7.41623932 C16,10.8350427 14.2905983,12.2025641 12.5128205,12.2025641 C11.4871795,12.2025641 10.5299145,11.8777778 10.1196581,10.8008547 C9.52136752,11.8777778 8.39316239,12.2709402 7.11111111,12.2709402 C5.33333333,12.2709402 4.30769231,11.2794872 4.30769231,9.87777778 Z M9.77777778,8.57863248 L9.77777778,7.77521368 C9.60683761,7.98034188 9.2991453,8.1 8.88888889,8.16837607 L7.24786325,8.44188034 C6.18803419,8.61282051 5.81196581,9.09145299 5.81196581,9.80940171 C5.81196581,10.5957265 6.39316239,11.108547 7.38461538,11.108547 C8.68376068,11.108547 9.77777778,10.2880342 9.77777778,8.57863248 Z" id="@"></path>
        </g>
    </g>
</svg>