<?xml version="1.0" encoding="utf-8"?>
<!-- Generator: Adobe Illustrator 20.0.0, SVG Export Plug-In . SVG Version: 6.00 Build 0)  -->
<svg version="1.1" id="Layer_1" xmlns="http://www.w3.org/2000/svg" xmlns:xlink="http://www.w3.org/1999/xlink" x="0px" y="0px"
	 viewBox="0 0 16 16" style="enable-background:new 0 0 16 16;" xml:space="preserve">
<path d="M12.9,12.9h-2.1V9.7c0-0.8,0-1.8-1.1-1.8c-1.1,0-1.2,0.8-1.2,1.7v3.3H6.5V6.2h2v0.9h0c0.3-0.5,1-1.1,2-1.1
	c2.1,0,2.5,1.4,2.5,3.2V12.9L12.9,12.9z M4.1,5.3c-0.7,0-1.2-0.5-1.2-1.2c0-0.7,0.5-1.2,1.2-1.2c0.7,0,1.2,0.5,1.2,1.2
	C5.3,4.8,4.8,5.3,4.1,5.3z M5.2,12.9H3.1V6.2h2.1C5.2,6.2,5.2,12.9,5.2,12.9z M14,1H2C1.5,1,1,1.5,1,2v12c0,0.6,0.5,1,1,1H14
	c0.6,0,1-0.5,1-1V2C15,1.5,14.5,1,14,1L14,1z"/>
</svg>
