<?xml version="1.0" encoding="UTF-8"?>
<svg width="584px" height="53px" viewBox="0 0 584 53" version="1.1" xmlns="http://www.w3.org/2000/svg" xmlns:xlink="http://www.w3.org/1999/xlink">
    <!-- Generator: Sketch 40.3 (33839) - http://www.bohemiancoding.com/sketch -->
    <title>sc</title>
    <desc>Created with Sketch.</desc>
    <defs></defs>
    <g id="Page-1" stroke="none" stroke-width="1" fill="none" fill-rule="evenodd">
        <g id="sc" fill="#FFFFFF">
            <path d="M6.625,37.222 C6.625,42.623 11.233,46.727 19.01,46.727 C27.074,46.727 31.683,43.343 31.683,37.511 C31.683,24.406 0.72,34.342 0.72,15.333 C0.72,6.908 7.993,0.931000003 19.01,0.931000003 C29.667,0.931000003 37.155,6.188 37.155,15.045 L30.531,15.045 C30.531,9.572 25.634,6.404 19.01,6.404 C12.601,6.404 7.489,9.212 7.489,14.757 C7.489,27.718 38.596,17.493 38.596,37.222 C38.596,46.151 31.395,52.2 19.01,52.2 C6.913,52.2 0,46.151 0,37.222 L6.625,37.222" id="Fill-1"></path>
            <path d="M53.705,7.556 L53.705,28.294 L66.09,28.294 C73.291,28.294 76.747,23.397 76.747,17.637 C76.747,11.876 73.291,7.556 66.09,7.556 L53.705,7.556 L53.705,7.556 Z M47.081,1.795 L65.802,1.795 C77.107,1.795 83.372,8.348 83.372,17.637 C83.372,26.926 77.107,34.054 65.802,34.054 L53.705,34.054 L53.705,51.336 L47.081,51.336 L47.081,1.795 L47.081,1.795 Z" id="Fill-4"></path>
            <path d="M112.285,46.151 C122.726,46.151 129.566,37.799 129.566,26.566 C129.566,15.333 122.726,6.98 112.285,6.98 C101.844,6.98 95.003,15.333 95.003,26.566 C95.003,37.799 101.844,46.151 112.285,46.151 L112.285,46.151 Z M112.285,0.931000003 C126.47,0.931000003 136.479,11.804 136.479,26.566 C136.479,41.327 126.47,52.2 112.285,52.2 C97.812,52.2 88.091,41.327 88.091,26.566 C88.091,11.804 97.812,0.931000003 112.285,0.931000003 L112.285,0.931000003 Z" id="Fill-5"></path>
            <path d="M151.077,7.556 L151.077,26.278 L163.462,26.278 C170.375,26.278 173.831,21.957 173.831,16.485 C173.831,11.012 170.086,7.556 163.462,7.556 L151.077,7.556 L151.077,7.556 Z M144.452,1.795 L163.174,1.795 C174.479,1.795 180.456,7.196 180.456,16.485 C180.456,23.829 176.711,29.302 169.583,31.246 L182.184,51.336 L174.983,51.336 L162.67,32.038 L151.077,32.038 L151.077,51.336 L144.452,51.336 L144.452,1.795 L144.452,1.795 Z" id="Fill-6"></path>
            <polyline id="Fill-7" points="183.785 1.795 224.973 1.795 224.973 7.412 207.691 7.412 207.691 51.336 201.066 51.336 201.066 7.412 183.785 7.412 183.785 1.795"></polyline>
            <path d="M261.689,21.525 C266.946,19.149 271.338,16.773 271.338,12.164 C271.338,8.708 268.746,5.828 263.85,5.828 C258.593,5.828 256.073,8.996 256.073,12.452 C256.073,15.477 258.017,17.781 261.689,21.525 L261.689,21.525 Z M275.083,42.767 L259.961,27.574 C255.137,29.95 251.177,32.686 251.177,37.799 C251.177,43.703 256.433,47.015 263.273,47.015 C268.53,47.015 272.347,45.431 275.083,42.767 L275.083,42.767 Z M256.289,23.973 C252.113,19.581 250.313,16.917 250.313,12.741 C250.313,6.692 255.137,0.931000003 263.85,0.931000003 C272.203,0.931000003 277.387,5.54 277.387,12.164 C277.387,19.221 271.554,22.389 265.362,25.125 L278.323,38.231 C279.835,34.991 280.555,31.174 280.555,27.142 L280.555,26.566 L286.315,26.566 L286.315,28.006 C286.315,31.318 285.523,37.222 282.355,42.407 L291.212,51.336 L283.724,51.336 L278.971,46.583 C275.515,49.896 270.474,52.2 263.273,52.2 C251.609,52.2 244.84,46.727 244.84,38.375 C244.84,30.67 250.313,26.854 256.289,23.973 L256.289,23.973 Z" id="Fill-8"></path>
            <path d="M335.56,0.931000003 C347.154,0.931000003 354.57,7.628 356.586,17.349 L349.746,17.349 C347.874,10.652 343.193,6.98 335.56,6.98 C325.408,6.98 318.567,15.045 318.567,26.566 C318.567,37.799 325.408,46.151 335.272,46.151 C343.481,46.151 347.874,42.479 349.746,35.783 L356.586,35.783 C354.57,45.503 346.866,52.2 335.272,52.2 C321.375,52.2 311.654,41.615 311.654,26.566 C311.654,11.804 321.375,0.931000003 335.56,0.931000003" id="Fill-9"></path>
            <path d="M370.99,7.556 L370.99,26.278 L383.375,26.278 C390.288,26.278 393.744,21.957 393.744,16.485 C393.744,11.012 390,7.556 383.375,7.556 L370.99,7.556 L370.99,7.556 Z M364.365,1.795 L383.087,1.795 C394.392,1.795 400.369,7.196 400.369,16.485 C400.369,23.829 396.625,29.302 389.496,31.246 L402.096,51.336 L394.896,51.336 L382.583,32.038 L370.99,32.038 L370.99,51.336 L364.365,51.336 L364.365,1.795 L364.365,1.795 Z" id="Fill-10"></path>
            <polyline id="Fill-11" points="409.207 1.795 442.617 1.795 442.617 7.556 415.831 7.556 415.831 23.253 437.145 23.253 437.145 29.014 415.831 29.014 415.831 45.575 443.193 45.575 443.193 51.336 409.207 51.336 409.207 1.795"></polyline>
            <path d="M469.4,8.708 L460.758,32.614 L478.329,32.614 L469.687,8.708 L469.4,8.708 L469.4,8.708 Z M465.799,1.795 L473.576,1.795 L492.009,51.336 L485.097,51.336 L480.417,38.375 L458.67,38.375 L453.99,51.336 L447.366,51.336 L465.799,1.795 L465.799,1.795 Z" id="Fill-12"></path>
            <polyline id="Fill-13" points="485.972 1.795 527.16 1.795 527.16 7.412 509.878 7.412 509.878 51.336 503.253 51.336 503.253 7.412 485.972 7.412 485.972 1.795"></polyline>
            <polygon id="Fill-14" points="532.406 51.336 539.03 51.336 539.03 1.795 532.406 1.795"></polygon>
            <polyline id="Fill-15" points="549.835 1.795 583.246 1.795 583.246 7.556 556.459 7.556 556.459 23.253 577.774 23.253 577.774 29.014 556.459 29.014 556.459 45.575 583.822 45.575 583.822 51.336 549.835 51.336 549.835 1.795"></polyline>
        </g>
    </g>
</svg>