<?xml version="1.0" encoding="UTF-8" standalone="no"?>
<svg width="166px" height="348px" viewBox="0 0 166 348" version="1.1" xmlns="http://www.w3.org/2000/svg" xmlns:xlink="http://www.w3.org/1999/xlink">
    <!-- Generator: Sketch 3.8.3 (29802) - http://www.bohemiancoding.com/sketch -->
    <title>sc_logo</title>
    <desc>Created with Sketch.</desc>
    <defs></defs>
    <g id="Page-1" stroke="none" stroke-width="1" fill="none" fill-rule="evenodd">
        <g id="sc_logo">
            <g id="Group-3" transform="translate(0.000000, 1.000000)" fill="#000000">
                <path d="M0,60.5472523 C0,71.0053852 6.6957302,78.3621964 16.2683445,78.3621964 C24.2530227,78.3621964 29.5608089,73.7081961 30.9487529,66.9526821 L26.2369428,66.9526821 C24.9479947,71.6066824 21.9221167,74.1581601 16.2683445,74.1581601 C9.47361827,74.1581601 4.76180813,68.3540275 4.76180813,60.5472523 C4.76180813,52.5407172 9.47361827,46.9363445 16.4663365,46.9363445 C21.7241246,46.9363445 24.9479947,49.4878222 26.2369428,54.1418225 L30.9487529,54.1418225 C29.5608089,47.3863085 24.4520147,42.7323082 16.4663365,42.7323082 C6.6957302,42.7323082 0,50.2888793 0,60.5472523 L0,60.5472523 Z M36.8015171,77.7608991 L41.1653413,77.7608991 L41.1653413,65.0004839 C41.1653413,60.7470121 42.9012713,56.9445133 46.5221254,56.9445133 C47.4650874,56.9445133 48.4070495,57.1947175 49.4980055,57.7445615 L50.8869495,53.7412939 C49.6469995,52.8908014 48.5060455,52.7404771 47.5140855,52.7404771 C44.4392094,52.7404771 42.3062953,54.2921468 41.1163432,56.8940689 L40.9673492,56.8940689 L40.9673492,53.3417743 L36.8015171,53.3417743 L36.8015171,77.7608991 Z M51.5809216,65.5513367 C51.5809216,73.358112 55.7467537,78.3621964 63.2864499,78.3621964 C68.9402221,78.3621964 72.9580602,74.709013 73.6020343,70.3556613 L69.2382101,70.3556613 C68.7422301,72.5570549 66.857306,74.5586887 63.2864499,74.5586887 C59.0706198,74.5586887 56.3427297,71.2555894 56.1437377,66.1516251 L73.8010262,66.1516251 L73.8010262,64.35076 C73.8010262,57.0443932 69.4362021,52.7404771 63.0874579,52.7404771 C56.5407217,52.7404771 51.5809216,57.9453302 51.5809216,65.5513367 L51.5809216,65.5513367 Z M63.0874579,56.5439848 C66.708312,56.5439848 68.9402221,58.4457386 69.3372061,62.8495347 L56.3917277,62.8495347 C57.1856957,58.8957027 59.8145898,56.5439848 63.0874579,56.5439848 L63.0874579,56.5439848 Z M77.6688704,71.556238 C77.6688704,75.6593855 80.6447505,78.3621964 85.8025426,78.3621964 C89.3244007,78.3621964 92.1512868,77.0607309 93.5402309,74.5082443 L93.7382229,74.5082443 L93.7382229,77.7608991 L97.905055,77.7608991 L97.905055,61.747829 C97.905055,56.1434562 94.7301829,52.7404771 88.3814387,52.7404771 C82.2816845,52.7404771 78.8588224,56.344225 78.6608304,60.9477808 L82.8266626,60.9477808 C83.0256545,58.2449699 84.8605806,56.344225 88.3814387,56.344225 C91.8043008,56.344225 93.5402309,58.3952942 93.5402309,61.3483094 C93.5402309,62.4984417 92.9452548,62.7990903 90.3653588,63.2490543 L85.6045506,64.0501114 C79.9497785,65.0509283 77.6688704,67.5025261 77.6688704,71.556238 L77.6688704,71.556238 Z M93.5402309,67.5529705 C93.5402309,72.3572951 90.3653588,74.7584485 86.5965107,74.7584485 C83.5216346,74.7584485 82.0336945,73.2572232 82.0336945,71.1557095 C82.0336945,69.0541958 83.2236466,67.7032948 86.3975187,67.152442 L90.9613348,66.3523938 C92.1512868,66.1516251 93.0442508,65.8015409 93.5402309,65.2012526 L93.5402309,67.5529705 Z M104.748779,70.5554211 C104.748779,75.3597457 107.129683,77.7608991 111.890491,77.7608991 L115.462348,77.7608991 L115.462348,73.9584003 L112.486467,73.9584003 C110.105563,73.9584003 109.113603,72.9575834 109.113603,70.3556613 L109.113603,56.9445133 L115.462348,56.9445133 L115.462348,53.3417743 L109.113603,53.3417743 L109.113603,45.9355276 L104.748779,45.9355276 L104.748779,53.3417743 L100.185963,53.3417743 L100.185963,56.9445133 L104.748779,56.9445133 L104.748779,70.5554211 Z M119.727176,46.1352874 L124.488984,46.1352874 L124.488984,41.131203 L119.727176,41.131203 L119.727176,46.1352874 Z M119.925168,77.7608991 L124.289992,77.7608991 L124.289992,53.3407654 L119.925168,53.3407654 L119.925168,77.7608991 Z M129.54678,65.5513367 C129.54678,73.358112 133.712612,78.3621964 141.252308,78.3621964 C146.906081,78.3621964 150.923919,74.709013 151.567893,70.3556613 L147.204069,70.3556613 C146.708088,72.5570549 144.823164,74.5586887 141.252308,74.5586887 C137.036478,74.5586887 134.308588,71.2555894 134.109596,66.1516251 L151.766885,66.1516251 L151.766885,64.35076 C151.766885,57.0443932 147.402061,52.7404771 141.053316,52.7404771 C134.50658,52.7404771 129.54678,57.9453302 129.54678,65.5513367 L129.54678,65.5513367 Z M141.053316,56.5439848 C144.67417,56.5439848 146.906081,58.4457386 147.303065,62.8495347 L134.357586,62.8495347 C135.151554,58.8957027 137.780448,56.5439848 141.053316,56.5439848 L141.053316,56.5439848 Z" id="Fill-1"></path>
                <path d="M2.57769613,25.731335 C2.57769613,31.9359961 7.33950426,36.1400324 15.6711685,36.1400324 C24.2028248,36.1400324 29.1626249,31.9359961 29.1626249,25.731335 C29.1626249,12.0205473 7.7354883,19.1261453 7.7354883,10.1187934 C7.7354883,6.26585018 11.2573464,4.31365192 15.6711685,4.31365192 C20.2349846,4.31365192 23.6068488,6.5160544 23.6068488,10.3185532 L28.1706649,10.3185532 C28.1706649,4.16332761 23.0118728,0.511153099 15.6711685,0.511153099 C8.08347428,0.511153099 3.07367615,4.66373605 3.07367615,10.5193219 C3.07367615,23.7297012 24.4008168,16.823863 24.4008168,25.9310948 C24.4008168,29.9848067 21.2269447,32.3365246 15.6711685,32.3365246 C10.3153843,32.3365246 7.14051228,29.4843983 7.14051228,25.731335 L2.57769613,25.731335 Z M39.5772053,39.9425312 C39.5772053,38.2919904 39.5772053,34.9384468 39.3792132,31.7362363 L39.5772053,31.7362363 C41.1651413,34.9384468 43.9420294,36.1400324 47.3148935,36.1400324 C53.4646457,36.1400324 58.4244458,31.1359479 58.4244458,23.1294129 C58.4244458,15.1228778 53.8616297,10.5193219 47.7118775,10.5193219 C44.3390134,10.5193219 41.1651413,11.7198986 39.5772053,14.9221091 L39.3792132,14.9221091 L39.3792132,11.1196103 L35.2133811,11.1196103 L35.2133811,46.5487297 L39.5772053,46.5487297 L39.5772053,39.9425312 Z M53.8616297,23.1294129 C53.8616297,28.9335455 50.6877576,32.3365246 46.7199175,32.3365246 C42.7520773,32.3365246 39.5772053,29.1343142 39.5772053,23.3291727 L39.5772053,22.9286442 C39.7261993,17.3747158 42.8510733,14.3218207 46.7199175,14.3218207 C50.6877576,14.3218207 53.8616297,17.3242714 53.8616297,23.1294129 L53.8616297,23.1294129 Z M61.3013299,23.3291727 C61.3013299,31.1359479 65.864146,36.1400324 73.2048503,36.1400324 C80.1485705,36.1400324 85.1083706,31.1359479 85.1083706,23.3291727 C85.1083706,15.5234063 80.5455545,10.5193219 73.2048503,10.5193219 C66.2611301,10.5193219 61.3013299,15.5234063 61.3013299,23.3291727 L61.3013299,23.3291727 Z M65.864146,23.3291727 C65.864146,17.9245598 68.8400261,14.3218207 73.2048503,14.3218207 C77.5696744,14.3218207 80.5455545,17.7247999 80.5455545,23.3291727 C80.5455545,28.7337856 77.5696744,32.3365246 73.2048503,32.3365246 C68.8400261,32.3365246 65.864146,28.7337856 65.864146,23.3291727 L65.864146,23.3291727 Z M90.3651588,35.539744 L94.7299829,35.539744 L94.7299829,22.7793287 C94.7299829,18.525857 96.465913,14.7223493 100.086767,14.7223493 C101.028729,14.7223493 101.971691,14.9725535 103.062647,15.5234063 L104.451591,11.5201388 C103.211641,10.6686373 102.070687,10.5193219 101.078727,10.5193219 C98.003851,10.5193219 95.8709369,12.0699828 94.6809849,14.6719049 L94.5319909,14.6719049 L94.5319909,11.1196103 L90.3651588,11.1196103 L90.3651588,35.539744 Z M110.501347,28.3332571 C110.501347,33.1375817 112.882251,35.539744 117.64306,35.539744 L121.213916,35.539744 L121.213916,31.7362363 L118.238036,31.7362363 C115.858132,31.7362363 114.866172,30.7354194 114.866172,28.1334973 L114.866172,14.7223493 L121.213916,14.7223493 L121.213916,11.1196103 L114.866172,11.1196103 L114.866172,3.71336357 L110.501347,3.71336357 L110.501347,11.1196103 L105.938531,11.1196103 L105.938531,14.7223493 L110.501347,14.7223493 L110.501347,28.3332571 Z M134.703372,26.5323921 C134.703372,32.3365246 139.366184,36.1400324 147.400861,36.1400324 C152.360661,36.1400324 155.832521,34.5389271 158.213425,32.2366447 L161.486293,35.539744 L166.645085,35.539744 L160.544331,29.334074 C162.726243,25.731335 163.272221,21.6281876 163.272221,19.3259052 L163.272221,18.3250883 L159.304381,18.3250883 L159.304381,18.7256168 C159.304381,21.5283076 158.808401,24.1796653 157.766443,26.4315033 L148.838803,17.3242714 C153.104631,15.4225175 157.121469,13.221124 157.121469,8.31691945 C157.121469,3.71336357 153.550613,0.511153099 147.797845,0.511153099 C141.796086,0.511153099 138.47322,4.51442063 138.47322,8.71744798 C138.47322,11.6200187 139.71317,13.4713282 142.590054,16.5242232 C138.47322,18.525857 134.703372,21.1772146 134.703372,26.5323921 L134.703372,26.5323921 Z M147.400861,32.5372934 C142.68905,32.5372934 139.068196,30.235011 139.068196,26.1318635 C139.068196,22.57856 141.796086,20.6768062 145.118953,19.0262654 L155.534533,29.5842782 C153.649609,31.4355877 151.021715,32.5372934 147.400861,32.5372934 L147.400861,32.5372934 Z M142.44106,8.51768816 C142.44106,6.11552587 144.17699,3.91312339 147.797845,3.91312339 C151.169709,3.91312339 152.955637,5.91475716 152.955637,8.31691945 C152.955637,11.5201388 149.929759,13.1706796 146.309905,14.8222292 C143.780006,12.2203071 142.44106,10.6192018 142.44106,8.51768816 L142.44106,8.51768816 Z" id="Fill-4"></path>
            </g>
            <g id="Group-3" transform="translate(0.000000, 132.000000)" fill="#FFFFFF">
                <path d="M0,60.5472523 C0,71.0053852 6.6957302,78.3621964 16.2683445,78.3621964 C24.2530227,78.3621964 29.5608089,73.7081961 30.9487529,66.9526821 L26.2369428,66.9526821 C24.9479947,71.6066824 21.9221167,74.1581601 16.2683445,74.1581601 C9.47361827,74.1581601 4.76180813,68.3540275 4.76180813,60.5472523 C4.76180813,52.5407172 9.47361827,46.9363445 16.4663365,46.9363445 C21.7241246,46.9363445 24.9479947,49.4878222 26.2369428,54.1418225 L30.9487529,54.1418225 C29.5608089,47.3863085 24.4520147,42.7323082 16.4663365,42.7323082 C6.6957302,42.7323082 0,50.2888793 0,60.5472523 L0,60.5472523 Z M36.8015171,77.7608991 L41.1653413,77.7608991 L41.1653413,65.0004839 C41.1653413,60.7470121 42.9012713,56.9445133 46.5221254,56.9445133 C47.4650874,56.9445133 48.4070495,57.1947175 49.4980055,57.7445615 L50.8869495,53.7412939 C49.6469995,52.8908014 48.5060455,52.7404771 47.5140855,52.7404771 C44.4392094,52.7404771 42.3062953,54.2921468 41.1163432,56.8940689 L40.9673492,56.8940689 L40.9673492,53.3417743 L36.8015171,53.3417743 L36.8015171,77.7608991 Z M51.5809216,65.5513367 C51.5809216,73.358112 55.7467537,78.3621964 63.2864499,78.3621964 C68.9402221,78.3621964 72.9580602,74.709013 73.6020343,70.3556613 L69.2382101,70.3556613 C68.7422301,72.5570549 66.857306,74.5586887 63.2864499,74.5586887 C59.0706198,74.5586887 56.3427297,71.2555894 56.1437377,66.1516251 L73.8010262,66.1516251 L73.8010262,64.35076 C73.8010262,57.0443932 69.4362021,52.7404771 63.0874579,52.7404771 C56.5407217,52.7404771 51.5809216,57.9453302 51.5809216,65.5513367 L51.5809216,65.5513367 Z M63.0874579,56.5439848 C66.708312,56.5439848 68.9402221,58.4457386 69.3372061,62.8495347 L56.3917277,62.8495347 C57.1856957,58.8957027 59.8145898,56.5439848 63.0874579,56.5439848 L63.0874579,56.5439848 Z M77.6688704,71.556238 C77.6688704,75.6593855 80.6447505,78.3621964 85.8025426,78.3621964 C89.3244007,78.3621964 92.1512868,77.0607309 93.5402309,74.5082443 L93.7382229,74.5082443 L93.7382229,77.7608991 L97.905055,77.7608991 L97.905055,61.747829 C97.905055,56.1434562 94.7301829,52.7404771 88.3814387,52.7404771 C82.2816845,52.7404771 78.8588224,56.344225 78.6608304,60.9477808 L82.8266626,60.9477808 C83.0256545,58.2449699 84.8605806,56.344225 88.3814387,56.344225 C91.8043008,56.344225 93.5402309,58.3952942 93.5402309,61.3483094 C93.5402309,62.4984417 92.9452548,62.7990903 90.3653588,63.2490543 L85.6045506,64.0501114 C79.9497785,65.0509283 77.6688704,67.5025261 77.6688704,71.556238 L77.6688704,71.556238 Z M93.5402309,67.5529705 C93.5402309,72.3572951 90.3653588,74.7584485 86.5965107,74.7584485 C83.5216346,74.7584485 82.0336945,73.2572232 82.0336945,71.1557095 C82.0336945,69.0541958 83.2236466,67.7032948 86.3975187,67.152442 L90.9613348,66.3523938 C92.1512868,66.1516251 93.0442508,65.8015409 93.5402309,65.2012526 L93.5402309,67.5529705 Z M104.748779,70.5554211 C104.748779,75.3597457 107.129683,77.7608991 111.890491,77.7608991 L115.462348,77.7608991 L115.462348,73.9584003 L112.486467,73.9584003 C110.105563,73.9584003 109.113603,72.9575834 109.113603,70.3556613 L109.113603,56.9445133 L115.462348,56.9445133 L115.462348,53.3417743 L109.113603,53.3417743 L109.113603,45.9355276 L104.748779,45.9355276 L104.748779,53.3417743 L100.185963,53.3417743 L100.185963,56.9445133 L104.748779,56.9445133 L104.748779,70.5554211 Z M119.727176,46.1352874 L124.488984,46.1352874 L124.488984,41.131203 L119.727176,41.131203 L119.727176,46.1352874 Z M119.925168,77.7608991 L124.289992,77.7608991 L124.289992,53.3407654 L119.925168,53.3407654 L119.925168,77.7608991 Z M129.54678,65.5513367 C129.54678,73.358112 133.712612,78.3621964 141.252308,78.3621964 C146.906081,78.3621964 150.923919,74.709013 151.567893,70.3556613 L147.204069,70.3556613 C146.708088,72.5570549 144.823164,74.5586887 141.252308,74.5586887 C137.036478,74.5586887 134.308588,71.2555894 134.109596,66.1516251 L151.766885,66.1516251 L151.766885,64.35076 C151.766885,57.0443932 147.402061,52.7404771 141.053316,52.7404771 C134.50658,52.7404771 129.54678,57.9453302 129.54678,65.5513367 L129.54678,65.5513367 Z M141.053316,56.5439848 C144.67417,56.5439848 146.906081,58.4457386 147.303065,62.8495347 L134.357586,62.8495347 C135.151554,58.8957027 137.780448,56.5439848 141.053316,56.5439848 L141.053316,56.5439848 Z" id="Fill-1"></path>
                <path d="M2.57769613,25.731335 C2.57769613,31.9359961 7.33950426,36.1400324 15.6711685,36.1400324 C24.2028248,36.1400324 29.1626249,31.9359961 29.1626249,25.731335 C29.1626249,12.0205473 7.7354883,19.1261453 7.7354883,10.1187934 C7.7354883,6.26585018 11.2573464,4.31365192 15.6711685,4.31365192 C20.2349846,4.31365192 23.6068488,6.5160544 23.6068488,10.3185532 L28.1706649,10.3185532 C28.1706649,4.16332761 23.0118728,0.511153099 15.6711685,0.511153099 C8.08347428,0.511153099 3.07367615,4.66373605 3.07367615,10.5193219 C3.07367615,23.7297012 24.4008168,16.823863 24.4008168,25.9310948 C24.4008168,29.9848067 21.2269447,32.3365246 15.6711685,32.3365246 C10.3153843,32.3365246 7.14051228,29.4843983 7.14051228,25.731335 L2.57769613,25.731335 Z M39.5772053,39.9425312 C39.5772053,38.2919904 39.5772053,34.9384468 39.3792132,31.7362363 L39.5772053,31.7362363 C41.1651413,34.9384468 43.9420294,36.1400324 47.3148935,36.1400324 C53.4646457,36.1400324 58.4244458,31.1359479 58.4244458,23.1294129 C58.4244458,15.1228778 53.8616297,10.5193219 47.7118775,10.5193219 C44.3390134,10.5193219 41.1651413,11.7198986 39.5772053,14.9221091 L39.3792132,14.9221091 L39.3792132,11.1196103 L35.2133811,11.1196103 L35.2133811,46.5487297 L39.5772053,46.5487297 L39.5772053,39.9425312 Z M53.8616297,23.1294129 C53.8616297,28.9335455 50.6877576,32.3365246 46.7199175,32.3365246 C42.7520773,32.3365246 39.5772053,29.1343142 39.5772053,23.3291727 L39.5772053,22.9286442 C39.7261993,17.3747158 42.8510733,14.3218207 46.7199175,14.3218207 C50.6877576,14.3218207 53.8616297,17.3242714 53.8616297,23.1294129 L53.8616297,23.1294129 Z M61.3013299,23.3291727 C61.3013299,31.1359479 65.864146,36.1400324 73.2048503,36.1400324 C80.1485705,36.1400324 85.1083706,31.1359479 85.1083706,23.3291727 C85.1083706,15.5234063 80.5455545,10.5193219 73.2048503,10.5193219 C66.2611301,10.5193219 61.3013299,15.5234063 61.3013299,23.3291727 L61.3013299,23.3291727 Z M65.864146,23.3291727 C65.864146,17.9245598 68.8400261,14.3218207 73.2048503,14.3218207 C77.5696744,14.3218207 80.5455545,17.7247999 80.5455545,23.3291727 C80.5455545,28.7337856 77.5696744,32.3365246 73.2048503,32.3365246 C68.8400261,32.3365246 65.864146,28.7337856 65.864146,23.3291727 L65.864146,23.3291727 Z M90.3651588,35.539744 L94.7299829,35.539744 L94.7299829,22.7793287 C94.7299829,18.525857 96.465913,14.7223493 100.086767,14.7223493 C101.028729,14.7223493 101.971691,14.9725535 103.062647,15.5234063 L104.451591,11.5201388 C103.211641,10.6686373 102.070687,10.5193219 101.078727,10.5193219 C98.003851,10.5193219 95.8709369,12.0699828 94.6809849,14.6719049 L94.5319909,14.6719049 L94.5319909,11.1196103 L90.3651588,11.1196103 L90.3651588,35.539744 Z M110.501347,28.3332571 C110.501347,33.1375817 112.882251,35.539744 117.64306,35.539744 L121.213916,35.539744 L121.213916,31.7362363 L118.238036,31.7362363 C115.858132,31.7362363 114.866172,30.7354194 114.866172,28.1334973 L114.866172,14.7223493 L121.213916,14.7223493 L121.213916,11.1196103 L114.866172,11.1196103 L114.866172,3.71336357 L110.501347,3.71336357 L110.501347,11.1196103 L105.938531,11.1196103 L105.938531,14.7223493 L110.501347,14.7223493 L110.501347,28.3332571 Z M134.703372,26.5323921 C134.703372,32.3365246 139.366184,36.1400324 147.400861,36.1400324 C152.360661,36.1400324 155.832521,34.5389271 158.213425,32.2366447 L161.486293,35.539744 L166.645085,35.539744 L160.544331,29.334074 C162.726243,25.731335 163.272221,21.6281876 163.272221,19.3259052 L163.272221,18.3250883 L159.304381,18.3250883 L159.304381,18.7256168 C159.304381,21.5283076 158.808401,24.1796653 157.766443,26.4315033 L148.838803,17.3242714 C153.104631,15.4225175 157.121469,13.221124 157.121469,8.31691945 C157.121469,3.71336357 153.550613,0.511153099 147.797845,0.511153099 C141.796086,0.511153099 138.47322,4.51442063 138.47322,8.71744798 C138.47322,11.6200187 139.71317,13.4713282 142.590054,16.5242232 C138.47322,18.525857 134.703372,21.1772146 134.703372,26.5323921 L134.703372,26.5323921 Z M147.400861,32.5372934 C142.68905,32.5372934 139.068196,30.235011 139.068196,26.1318635 C139.068196,22.57856 141.796086,20.6768062 145.118953,19.0262654 L155.534533,29.5842782 C153.649609,31.4355877 151.021715,32.5372934 147.400861,32.5372934 L147.400861,32.5372934 Z M142.44106,8.51768816 C142.44106,6.11552587 144.17699,3.91312339 147.797845,3.91312339 C151.169709,3.91312339 152.955637,5.91475716 152.955637,8.31691945 C152.955637,11.5201388 149.929759,13.1706796 146.309905,14.8222292 C143.780006,12.2203071 142.44106,10.6192018 142.44106,8.51768816 L142.44106,8.51768816 Z" id="Fill-4"></path>
            </g>
            <g id="Group-3" transform="translate(0.000000, 262.000000)" fill="#1530E4">
                <path d="M0,60.5472523 C0,71.0053852 6.6957302,78.3621964 16.2683445,78.3621964 C24.2530227,78.3621964 29.5608089,73.7081961 30.9487529,66.9526821 L26.2369428,66.9526821 C24.9479947,71.6066824 21.9221167,74.1581601 16.2683445,74.1581601 C9.47361827,74.1581601 4.76180813,68.3540275 4.76180813,60.5472523 C4.76180813,52.5407172 9.47361827,46.9363445 16.4663365,46.9363445 C21.7241246,46.9363445 24.9479947,49.4878222 26.2369428,54.1418225 L30.9487529,54.1418225 C29.5608089,47.3863085 24.4520147,42.7323082 16.4663365,42.7323082 C6.6957302,42.7323082 0,50.2888793 0,60.5472523 L0,60.5472523 Z M36.8015171,77.7608991 L41.1653413,77.7608991 L41.1653413,65.0004839 C41.1653413,60.7470121 42.9012713,56.9445133 46.5221254,56.9445133 C47.4650874,56.9445133 48.4070495,57.1947175 49.4980055,57.7445615 L50.8869495,53.7412939 C49.6469995,52.8908014 48.5060455,52.7404771 47.5140855,52.7404771 C44.4392094,52.7404771 42.3062953,54.2921468 41.1163432,56.8940689 L40.9673492,56.8940689 L40.9673492,53.3417743 L36.8015171,53.3417743 L36.8015171,77.7608991 Z M51.5809216,65.5513367 C51.5809216,73.358112 55.7467537,78.3621964 63.2864499,78.3621964 C68.9402221,78.3621964 72.9580602,74.709013 73.6020343,70.3556613 L69.2382101,70.3556613 C68.7422301,72.5570549 66.857306,74.5586887 63.2864499,74.5586887 C59.0706198,74.5586887 56.3427297,71.2555894 56.1437377,66.1516251 L73.8010262,66.1516251 L73.8010262,64.35076 C73.8010262,57.0443932 69.4362021,52.7404771 63.0874579,52.7404771 C56.5407217,52.7404771 51.5809216,57.9453302 51.5809216,65.5513367 L51.5809216,65.5513367 Z M63.0874579,56.5439848 C66.708312,56.5439848 68.9402221,58.4457386 69.3372061,62.8495347 L56.3917277,62.8495347 C57.1856957,58.8957027 59.8145898,56.5439848 63.0874579,56.5439848 L63.0874579,56.5439848 Z M77.6688704,71.556238 C77.6688704,75.6593855 80.6447505,78.3621964 85.8025426,78.3621964 C89.3244007,78.3621964 92.1512868,77.0607309 93.5402309,74.5082443 L93.7382229,74.5082443 L93.7382229,77.7608991 L97.905055,77.7608991 L97.905055,61.747829 C97.905055,56.1434562 94.7301829,52.7404771 88.3814387,52.7404771 C82.2816845,52.7404771 78.8588224,56.344225 78.6608304,60.9477808 L82.8266626,60.9477808 C83.0256545,58.2449699 84.8605806,56.344225 88.3814387,56.344225 C91.8043008,56.344225 93.5402309,58.3952942 93.5402309,61.3483094 C93.5402309,62.4984417 92.9452548,62.7990903 90.3653588,63.2490543 L85.6045506,64.0501114 C79.9497785,65.0509283 77.6688704,67.5025261 77.6688704,71.556238 L77.6688704,71.556238 Z M93.5402309,67.5529705 C93.5402309,72.3572951 90.3653588,74.7584485 86.5965107,74.7584485 C83.5216346,74.7584485 82.0336945,73.2572232 82.0336945,71.1557095 C82.0336945,69.0541958 83.2236466,67.7032948 86.3975187,67.152442 L90.9613348,66.3523938 C92.1512868,66.1516251 93.0442508,65.8015409 93.5402309,65.2012526 L93.5402309,67.5529705 Z M104.748779,70.5554211 C104.748779,75.3597457 107.129683,77.7608991 111.890491,77.7608991 L115.462348,77.7608991 L115.462348,73.9584003 L112.486467,73.9584003 C110.105563,73.9584003 109.113603,72.9575834 109.113603,70.3556613 L109.113603,56.9445133 L115.462348,56.9445133 L115.462348,53.3417743 L109.113603,53.3417743 L109.113603,45.9355276 L104.748779,45.9355276 L104.748779,53.3417743 L100.185963,53.3417743 L100.185963,56.9445133 L104.748779,56.9445133 L104.748779,70.5554211 Z M119.727176,46.1352874 L124.488984,46.1352874 L124.488984,41.131203 L119.727176,41.131203 L119.727176,46.1352874 Z M119.925168,77.7608991 L124.289992,77.7608991 L124.289992,53.3407654 L119.925168,53.3407654 L119.925168,77.7608991 Z M129.54678,65.5513367 C129.54678,73.358112 133.712612,78.3621964 141.252308,78.3621964 C146.906081,78.3621964 150.923919,74.709013 151.567893,70.3556613 L147.204069,70.3556613 C146.708088,72.5570549 144.823164,74.5586887 141.252308,74.5586887 C137.036478,74.5586887 134.308588,71.2555894 134.109596,66.1516251 L151.766885,66.1516251 L151.766885,64.35076 C151.766885,57.0443932 147.402061,52.7404771 141.053316,52.7404771 C134.50658,52.7404771 129.54678,57.9453302 129.54678,65.5513367 L129.54678,65.5513367 Z M141.053316,56.5439848 C144.67417,56.5439848 146.906081,58.4457386 147.303065,62.8495347 L134.357586,62.8495347 C135.151554,58.8957027 137.780448,56.5439848 141.053316,56.5439848 L141.053316,56.5439848 Z" id="Fill-1"></path>
                <path d="M2.57769613,25.731335 C2.57769613,31.9359961 7.33950426,36.1400324 15.6711685,36.1400324 C24.2028248,36.1400324 29.1626249,31.9359961 29.1626249,25.731335 C29.1626249,12.0205473 7.7354883,19.1261453 7.7354883,10.1187934 C7.7354883,6.26585018 11.2573464,4.31365192 15.6711685,4.31365192 C20.2349846,4.31365192 23.6068488,6.5160544 23.6068488,10.3185532 L28.1706649,10.3185532 C28.1706649,4.16332761 23.0118728,0.511153099 15.6711685,0.511153099 C8.08347428,0.511153099 3.07367615,4.66373605 3.07367615,10.5193219 C3.07367615,23.7297012 24.4008168,16.823863 24.4008168,25.9310948 C24.4008168,29.9848067 21.2269447,32.3365246 15.6711685,32.3365246 C10.3153843,32.3365246 7.14051228,29.4843983 7.14051228,25.731335 L2.57769613,25.731335 Z M39.5772053,39.9425312 C39.5772053,38.2919904 39.5772053,34.9384468 39.3792132,31.7362363 L39.5772053,31.7362363 C41.1651413,34.9384468 43.9420294,36.1400324 47.3148935,36.1400324 C53.4646457,36.1400324 58.4244458,31.1359479 58.4244458,23.1294129 C58.4244458,15.1228778 53.8616297,10.5193219 47.7118775,10.5193219 C44.3390134,10.5193219 41.1651413,11.7198986 39.5772053,14.9221091 L39.3792132,14.9221091 L39.3792132,11.1196103 L35.2133811,11.1196103 L35.2133811,46.5487297 L39.5772053,46.5487297 L39.5772053,39.9425312 Z M53.8616297,23.1294129 C53.8616297,28.9335455 50.6877576,32.3365246 46.7199175,32.3365246 C42.7520773,32.3365246 39.5772053,29.1343142 39.5772053,23.3291727 L39.5772053,22.9286442 C39.7261993,17.3747158 42.8510733,14.3218207 46.7199175,14.3218207 C50.6877576,14.3218207 53.8616297,17.3242714 53.8616297,23.1294129 L53.8616297,23.1294129 Z M61.3013299,23.3291727 C61.3013299,31.1359479 65.864146,36.1400324 73.2048503,36.1400324 C80.1485705,36.1400324 85.1083706,31.1359479 85.1083706,23.3291727 C85.1083706,15.5234063 80.5455545,10.5193219 73.2048503,10.5193219 C66.2611301,10.5193219 61.3013299,15.5234063 61.3013299,23.3291727 L61.3013299,23.3291727 Z M65.864146,23.3291727 C65.864146,17.9245598 68.8400261,14.3218207 73.2048503,14.3218207 C77.5696744,14.3218207 80.5455545,17.7247999 80.5455545,23.3291727 C80.5455545,28.7337856 77.5696744,32.3365246 73.2048503,32.3365246 C68.8400261,32.3365246 65.864146,28.7337856 65.864146,23.3291727 L65.864146,23.3291727 Z M90.3651588,35.539744 L94.7299829,35.539744 L94.7299829,22.7793287 C94.7299829,18.525857 96.465913,14.7223493 100.086767,14.7223493 C101.028729,14.7223493 101.971691,14.9725535 103.062647,15.5234063 L104.451591,11.5201388 C103.211641,10.6686373 102.070687,10.5193219 101.078727,10.5193219 C98.003851,10.5193219 95.8709369,12.0699828 94.6809849,14.6719049 L94.5319909,14.6719049 L94.5319909,11.1196103 L90.3651588,11.1196103 L90.3651588,35.539744 Z M110.501347,28.3332571 C110.501347,33.1375817 112.882251,35.539744 117.64306,35.539744 L121.213916,35.539744 L121.213916,31.7362363 L118.238036,31.7362363 C115.858132,31.7362363 114.866172,30.7354194 114.866172,28.1334973 L114.866172,14.7223493 L121.213916,14.7223493 L121.213916,11.1196103 L114.866172,11.1196103 L114.866172,3.71336357 L110.501347,3.71336357 L110.501347,11.1196103 L105.938531,11.1196103 L105.938531,14.7223493 L110.501347,14.7223493 L110.501347,28.3332571 Z M134.703372,26.5323921 C134.703372,32.3365246 139.366184,36.1400324 147.400861,36.1400324 C152.360661,36.1400324 155.832521,34.5389271 158.213425,32.2366447 L161.486293,35.539744 L166.645085,35.539744 L160.544331,29.334074 C162.726243,25.731335 163.272221,21.6281876 163.272221,19.3259052 L163.272221,18.3250883 L159.304381,18.3250883 L159.304381,18.7256168 C159.304381,21.5283076 158.808401,24.1796653 157.766443,26.4315033 L148.838803,17.3242714 C153.104631,15.4225175 157.121469,13.221124 157.121469,8.31691945 C157.121469,3.71336357 153.550613,0.511153099 147.797845,0.511153099 C141.796086,0.511153099 138.47322,4.51442063 138.47322,8.71744798 C138.47322,11.6200187 139.71317,13.4713282 142.590054,16.5242232 C138.47322,18.525857 134.703372,21.1772146 134.703372,26.5323921 L134.703372,26.5323921 Z M147.400861,32.5372934 C142.68905,32.5372934 139.068196,30.235011 139.068196,26.1318635 C139.068196,22.57856 141.796086,20.6768062 145.118953,19.0262654 L155.534533,29.5842782 C153.649609,31.4355877 151.021715,32.5372934 147.400861,32.5372934 L147.400861,32.5372934 Z M142.44106,8.51768816 C142.44106,6.11552587 144.17699,3.91312339 147.797845,3.91312339 C151.169709,3.91312339 152.955637,5.91475716 152.955637,8.31691945 C152.955637,11.5201388 149.929759,13.1706796 146.309905,14.8222292 C143.780006,12.2203071 142.44106,10.6192018 142.44106,8.51768816 L142.44106,8.51768816 Z" id="Fill-4"></path>
            </g>
        </g>
    </g>
</svg>