<?xml version="1.0" encoding="UTF-8" standalone="no"?>
<svg width="173px" height="348px" viewBox="0 0 173 348" version="1.1" xmlns="http://www.w3.org/2000/svg" xmlns:xlink="http://www.w3.org/1999/xlink">
    <!-- Generator: Sketch 3.8.3 (29802) - http://www.bohemiancoding.com/sketch -->
    <title>tr_logo</title>
    <desc>Created with Sketch.</desc>
    <defs></defs>
    <g id="Page-1" stroke="none" stroke-width="1" fill="none" fill-rule="evenodd">
        <g id="tr_logo">
            <g id="Group" fill="#000000">
                <polygon id="Fill-1" points="0 2.67216495 0 6.50942842 11.7766533 6.50942842 11.7766533 36.517205 16.2910527 36.517205 16.2910527 6.50942842 28.0686442 6.50942842 28.0686442 2.67216495"></polygon>
                <path d="M41.9310025,82.0807587 C39.6250188,82.0807587 36.8771643,81.2935553 34.9633291,79.0796048 L32.2145365,82.0318524 C34.5214584,84.5401812 38.3979127,85.819269 41.8822185,85.819269 C48.4577433,85.819269 52.8736365,82.867962 52.8736365,74.6037379 L52.8736365,50.596388 L48.5553114,50.596388 L48.5553114,62.9442881 C48.5553114,68.2572051 45.9059631,71.4549247 42.2743671,71.4549247 C38.9373516,71.4549247 36.7786581,69.6839523 36.7786581,64.567601 L36.7786581,50.596388 L32.460333,50.596388 L32.460333,65.1582386 C32.460333,72.6352594 36.3855714,75.193435 41.0969832,75.193435 C44.630073,75.193435 47.1818532,73.8165346 48.5553114,71.0617932 L48.7513857,71.0617932 L48.7513857,74.6037379 C48.7513857,80.9004239 45.6113826,82.0807587 41.9310025,82.0807587" id="Fill-2"></path>
                <path d="M32.2394914,36.5176753 L36.5578165,36.5176753 L36.5578165,23.9732095 C36.5578165,18.8568582 39.4041772,15.6591387 43.0348351,15.6591387 C46.3718506,15.6591387 48.5305441,17.430111 48.5305441,22.5464623 L48.5305441,36.5176753 L52.8488692,36.5176753 L52.8488692,21.9567652 C52.8488692,14.4788039 48.7275566,11.9206283 44.0161447,11.9206283 C40.4830549,11.9206283 37.9312747,13.2984692 36.5578165,16.0532106 L36.3617422,16.0532106 C36.5578165,12.9043973 36.5578165,9.60886514 36.5578165,7.9855522 L36.5578165,0.507590955 L32.2394914,0.507590955 L32.2394914,36.5176753 Z" id="Fill-4"></path>
                <path d="M59.0746501,67.7161321 C59.0746501,72.6359177 63.1969009,75.1931529 68.8886842,75.1931529 C74.9735542,75.1931529 79.095805,72.5860709 79.095805,67.5195664 C79.095805,63.1904184 76.05337,61.7147649 72.421774,61.075221 L67.9073746,60.2880177 C65.0610138,59.7961332 63.7851237,58.8612705 63.7851237,57.0902981 C63.7851237,54.6308756 66.1408297,53.3517878 69.0847585,53.3517878 C72.2256997,53.3517878 74.3843932,54.7286882 74.3843932,57.2868638 L78.506644,57.2868638 C78.506644,52.1705125 74.1883189,50.0064088 69.0847585,50.0064088 C63.7851237,50.0064088 59.5653048,52.7611501 59.5653048,57.4834295 C59.5653048,62.1078963 63.2944689,63.4358904 66.5329782,63.9776218 L71.0483158,64.7648251 C73.5015898,65.2068628 74.7774799,66.0439129 74.7774799,67.9126978 C74.7774799,70.3730609 72.8636447,71.8487144 68.8886842,71.8487144 C66.0920456,71.8487144 63.1969009,70.5696266 63.1969009,67.7161321 L59.0746501,67.7161321 Z" id="Fill-7"></path>
                <path d="M57.3081051,24.5144706 C57.3081051,32.1889975 61.8225046,37.1078426 69.0847585,37.1078426 C75.9548638,37.1078426 80.8623499,32.1889975 80.8623499,24.5144706 C80.8623499,16.8399436 76.3479505,11.9210985 69.0847585,11.9210985 C62.2155913,11.9210985 57.3081051,16.8399436 57.3081051,24.5144706 M61.8225046,24.5144706 C61.8225046,19.2015536 64.7664333,15.6596089 69.0847585,15.6596089 C73.4030836,15.6596089 76.3479505,19.0049879 76.3479505,24.5144706 C76.3479505,29.8273876 73.4030836,33.3693323 69.0847585,33.3693323 C64.7664333,33.3693323 61.8225046,29.8273876 61.8225046,24.5144706" id="Fill-9"></path>
                <path d="M85.6217015,74.6032677 L89.9400266,74.6032677 L89.9400266,62.157555 C89.9400266,56.9424506 92.7863873,53.7447311 96.2209709,53.7447311 C99.3619121,53.7447311 101.128457,55.5157034 101.128457,60.2389233 L101.128457,74.6032677 L105.446782,74.6032677 L105.446782,62.1077082 C105.446782,56.9424506 108.292205,53.7447311 111.727726,53.7447311 C115.063804,53.7447311 116.634274,55.5157034 116.634274,60.2389233 L116.634274,74.6032677 L120.9526,74.6032677 L120.9526,59.6482857 C120.9526,52.5643963 117.223435,50.0062207 112.709036,50.0062207 C108.881366,50.0062207 106.280801,51.4818742 104.661547,54.8761595 C103.335935,51.3840616 100.490512,50.0062207 97.2022805,50.0062207 C93.865265,50.0062207 91.3134847,51.3840616 89.9400266,54.138803 L89.7439523,54.138803 L89.7439523,50.5968583 L85.6217015,50.5968583 L85.6217015,74.6032677 Z" id="Fill-11"></path>
                <path d="M85.6217015,36.5176753 L89.9400266,36.5176753 L89.9400266,24.0719626 C89.9400266,18.8568582 92.7863873,15.6591387 96.2209709,15.6591387 C99.3619121,15.6591387 101.128457,17.430111 101.128457,22.1533309 L101.128457,36.5176753 L105.446782,36.5176753 L105.446782,24.0221158 C105.446782,18.8568582 108.292205,15.6591387 111.727726,15.6591387 C115.063804,15.6591387 116.634274,17.430111 116.634274,22.1533309 L116.634274,36.5176753 L120.9526,36.5176753 L120.9526,21.5626933 C120.9526,14.4788039 117.223435,11.9206283 112.709036,11.9206283 C108.881366,11.9206283 106.280801,13.3962818 104.661547,16.7905671 C103.335935,13.2984692 100.490512,11.9206283 97.2022805,11.9206283 C93.865265,11.9206283 91.3134847,13.2984692 89.9400266,16.0532106 L89.7439523,16.0532106 L89.7439523,12.5112659 L85.6217015,12.5112659 L85.6217015,36.5176753 Z" id="Fill-13"></path>
                <path d="M125.853425,68.5032414 C125.853425,72.5370706 128.797354,75.1939993 133.900914,75.1939993 C137.38522,75.1939993 140.181858,73.9149115 141.556255,71.4056422 L141.752329,71.4056422 L141.752329,74.6033617 L145.87458,74.6033617 L145.87458,58.8611764 C145.87458,53.3516937 142.733639,50.0063147 136.452694,50.0063147 C130.416608,50.0063147 127.030809,53.5482594 126.834734,58.0739731 L130.956985,58.0739731 C131.153059,55.4179848 132.968388,53.5482594 136.452694,53.5482594 C139.838494,53.5482594 141.556255,55.5656442 141.556255,58.468045 C141.556255,59.5994734 140.967094,59.8947922 138.415313,60.3368299 L133.70484,61.1240333 C128.110624,62.1078023 125.853425,64.5183185 125.853425,68.5032414 L125.853425,68.5032414 Z M141.556255,64.5681653 C141.556255,69.2904447 138.415313,71.6520547 134.686149,71.6520547 C131.643714,71.6520547 130.17175,70.1754606 130.17175,68.11011 C130.17175,66.0438188 131.349134,64.7148842 134.490075,64.1740934 L139.004474,63.3868901 C140.181858,63.1903244 141.0656,62.8460993 141.556255,62.2554617 L141.556255,64.5681653 Z" id="Fill-15"></path>
                <path d="M125.853425,30.417649 C125.853425,34.4514782 128.797354,37.1084069 133.900914,37.1084069 C137.38522,37.1084069 140.181858,35.8293191 141.556255,33.3200497 L141.752329,33.3200497 L141.752329,36.5177693 L145.87458,36.5177693 L145.87458,20.775584 C145.87458,15.2661013 142.733639,11.9207223 136.452694,11.9207223 C130.416608,11.9207223 127.030809,15.462667 126.834734,19.9883807 L130.956985,19.9883807 C131.153059,17.3323924 132.968388,15.462667 136.452694,15.462667 C139.838494,15.462667 141.556255,17.4800518 141.556255,20.3824526 C141.556255,21.513881 140.967094,21.8082593 138.415313,22.2512375 L133.70484,23.0384408 C128.110624,24.0222099 125.853425,26.4327261 125.853425,30.417649 L125.853425,30.417649 Z M141.556255,26.4825729 C141.556255,31.2048523 138.415313,33.5664623 134.686149,33.5664623 C131.643714,33.5664623 130.17175,32.0898682 130.17175,30.0245176 C130.17175,27.9582264 131.349134,26.6292918 134.490075,26.088501 L139.004474,25.3012977 C140.181858,25.104732 141.0656,24.7605069 141.556255,24.1698693 L141.556255,26.4825729 Z" id="Fill-17"></path>
                <path d="M151.075145,29.6305397 C151.075145,34.5503253 155.197396,37.1075605 160.889179,37.1075605 C166.974049,37.1075605 171.0963,34.5004785 171.0963,29.433974 C171.0963,25.104826 168.053865,23.6291725 164.422269,22.9896286 L159.90787,22.2024253 C157.061509,21.7105408 155.785619,20.7756781 155.785619,19.0047057 C155.785619,16.5452832 158.141325,15.2661953 161.085254,15.2661953 C164.226195,15.2661953 166.384888,16.6430958 166.384888,19.2012714 L170.507139,19.2012714 C170.507139,14.0849201 166.188814,11.9208164 161.085254,11.9208164 C155.785619,11.9208164 151.5658,14.6755577 151.5658,19.3978371 C151.5658,24.0223039 155.294964,25.350298 158.533474,25.8920294 L163.048811,26.6792327 C165.502085,27.1212704 166.777975,27.9583205 166.777975,29.8271054 C166.777975,32.2874685 164.86414,33.763122 160.889179,33.763122 C158.092541,33.763122 155.197396,32.4840342 155.197396,29.6305397 L151.075145,29.6305397 Z" id="Fill-19"></path>
                <path d="M151.57218,74.6032677 L155.890505,74.6032677 L155.890505,62.157555 C155.890505,56.9424506 158.736865,53.7447311 162.367523,53.7447311 C165.704539,53.7447311 167.863232,55.5157034 167.863232,60.6320547 L167.863232,74.6032677 L172.181557,74.6032677 L172.181557,60.0423576 C172.181557,52.5643963 168.060245,50.0062207 163.348833,50.0062207 C159.815743,50.0062207 157.263963,51.3840616 155.890505,54.138803 L155.69443,54.138803 L155.69443,50.5968583 L151.57218,50.5968583 L151.57218,74.6032677 Z" id="Fill-21"></path>
                <path d="M1.34249907,74.4001184 L5.85689848,74.4001184 L5.85689848,60.4289054 L13.5122391,60.4289054 C18.6157995,60.4289054 19.4498189,62.8394217 20.5784187,67.7093605 L22.1488893,74.4001184 L26.6632887,74.4001184 L25.0928181,67.7093605 C24.1602926,63.8231907 23.3262732,59.7404552 19.9892577,58.4613674 L19.9892577,58.2648017 C23.4247794,57.5265047 25.8780534,54.5253508 25.8780534,50.1971434 C25.8780534,44.2446824 21.8045866,40.5550784 14.2974744,40.5550784 L1.34249907,40.5550784 L1.34249907,74.4001184 Z M14.689623,44.4901544 C18.8118738,44.4901544 21.363654,46.6551987 21.363654,50.1971434 C21.363654,53.739088 19.0079481,56.4938294 14.689623,56.4938294 L5.85689848,56.4938294 L5.85689848,44.4901544 L14.689623,44.4901544 Z" id="Fill-23"></path>
            </g>
            <g id="Group" transform="translate(0.000000, 131.000000)" fill="#FFFFFF">
                <polygon id="Fill-1" points="0 2.67216495 0 6.50942842 11.7766533 6.50942842 11.7766533 36.517205 16.2910527 36.517205 16.2910527 6.50942842 28.0686442 6.50942842 28.0686442 2.67216495"></polygon>
                <path d="M41.9310025,82.0807587 C39.6250188,82.0807587 36.8771643,81.2935553 34.9633291,79.0796048 L32.2145365,82.0318524 C34.5214584,84.5401812 38.3979127,85.819269 41.8822185,85.819269 C48.4577433,85.819269 52.8736365,82.867962 52.8736365,74.6037379 L52.8736365,50.596388 L48.5553114,50.596388 L48.5553114,62.9442881 C48.5553114,68.2572051 45.9059631,71.4549247 42.2743671,71.4549247 C38.9373516,71.4549247 36.7786581,69.6839523 36.7786581,64.567601 L36.7786581,50.596388 L32.460333,50.596388 L32.460333,65.1582386 C32.460333,72.6352594 36.3855714,75.193435 41.0969832,75.193435 C44.630073,75.193435 47.1818532,73.8165346 48.5553114,71.0617932 L48.7513857,71.0617932 L48.7513857,74.6037379 C48.7513857,80.9004239 45.6113826,82.0807587 41.9310025,82.0807587" id="Fill-2"></path>
                <path d="M32.2394914,36.5176753 L36.5578165,36.5176753 L36.5578165,23.9732095 C36.5578165,18.8568582 39.4041772,15.6591387 43.0348351,15.6591387 C46.3718506,15.6591387 48.5305441,17.430111 48.5305441,22.5464623 L48.5305441,36.5176753 L52.8488692,36.5176753 L52.8488692,21.9567652 C52.8488692,14.4788039 48.7275566,11.9206283 44.0161447,11.9206283 C40.4830549,11.9206283 37.9312747,13.2984692 36.5578165,16.0532106 L36.3617422,16.0532106 C36.5578165,12.9043973 36.5578165,9.60886514 36.5578165,7.9855522 L36.5578165,0.507590955 L32.2394914,0.507590955 L32.2394914,36.5176753 Z" id="Fill-4"></path>
                <path d="M59.0746501,67.7161321 C59.0746501,72.6359177 63.1969009,75.1931529 68.8886842,75.1931529 C74.9735542,75.1931529 79.095805,72.5860709 79.095805,67.5195664 C79.095805,63.1904184 76.05337,61.7147649 72.421774,61.075221 L67.9073746,60.2880177 C65.0610138,59.7961332 63.7851237,58.8612705 63.7851237,57.0902981 C63.7851237,54.6308756 66.1408297,53.3517878 69.0847585,53.3517878 C72.2256997,53.3517878 74.3843932,54.7286882 74.3843932,57.2868638 L78.506644,57.2868638 C78.506644,52.1705125 74.1883189,50.0064088 69.0847585,50.0064088 C63.7851237,50.0064088 59.5653048,52.7611501 59.5653048,57.4834295 C59.5653048,62.1078963 63.2944689,63.4358904 66.5329782,63.9776218 L71.0483158,64.7648251 C73.5015898,65.2068628 74.7774799,66.0439129 74.7774799,67.9126978 C74.7774799,70.3730609 72.8636447,71.8487144 68.8886842,71.8487144 C66.0920456,71.8487144 63.1969009,70.5696266 63.1969009,67.7161321 L59.0746501,67.7161321 Z" id="Fill-7"></path>
                <path d="M57.3081051,24.5144706 C57.3081051,32.1889975 61.8225046,37.1078426 69.0847585,37.1078426 C75.9548638,37.1078426 80.8623499,32.1889975 80.8623499,24.5144706 C80.8623499,16.8399436 76.3479505,11.9210985 69.0847585,11.9210985 C62.2155913,11.9210985 57.3081051,16.8399436 57.3081051,24.5144706 M61.8225046,24.5144706 C61.8225046,19.2015536 64.7664333,15.6596089 69.0847585,15.6596089 C73.4030836,15.6596089 76.3479505,19.0049879 76.3479505,24.5144706 C76.3479505,29.8273876 73.4030836,33.3693323 69.0847585,33.3693323 C64.7664333,33.3693323 61.8225046,29.8273876 61.8225046,24.5144706" id="Fill-9"></path>
                <path d="M85.6217015,74.6032677 L89.9400266,74.6032677 L89.9400266,62.157555 C89.9400266,56.9424506 92.7863873,53.7447311 96.2209709,53.7447311 C99.3619121,53.7447311 101.128457,55.5157034 101.128457,60.2389233 L101.128457,74.6032677 L105.446782,74.6032677 L105.446782,62.1077082 C105.446782,56.9424506 108.292205,53.7447311 111.727726,53.7447311 C115.063804,53.7447311 116.634274,55.5157034 116.634274,60.2389233 L116.634274,74.6032677 L120.9526,74.6032677 L120.9526,59.6482857 C120.9526,52.5643963 117.223435,50.0062207 112.709036,50.0062207 C108.881366,50.0062207 106.280801,51.4818742 104.661547,54.8761595 C103.335935,51.3840616 100.490512,50.0062207 97.2022805,50.0062207 C93.865265,50.0062207 91.3134847,51.3840616 89.9400266,54.138803 L89.7439523,54.138803 L89.7439523,50.5968583 L85.6217015,50.5968583 L85.6217015,74.6032677 Z" id="Fill-11"></path>
                <path d="M85.6217015,36.5176753 L89.9400266,36.5176753 L89.9400266,24.0719626 C89.9400266,18.8568582 92.7863873,15.6591387 96.2209709,15.6591387 C99.3619121,15.6591387 101.128457,17.430111 101.128457,22.1533309 L101.128457,36.5176753 L105.446782,36.5176753 L105.446782,24.0221158 C105.446782,18.8568582 108.292205,15.6591387 111.727726,15.6591387 C115.063804,15.6591387 116.634274,17.430111 116.634274,22.1533309 L116.634274,36.5176753 L120.9526,36.5176753 L120.9526,21.5626933 C120.9526,14.4788039 117.223435,11.9206283 112.709036,11.9206283 C108.881366,11.9206283 106.280801,13.3962818 104.661547,16.7905671 C103.335935,13.2984692 100.490512,11.9206283 97.2022805,11.9206283 C93.865265,11.9206283 91.3134847,13.2984692 89.9400266,16.0532106 L89.7439523,16.0532106 L89.7439523,12.5112659 L85.6217015,12.5112659 L85.6217015,36.5176753 Z" id="Fill-13"></path>
                <path d="M125.853425,68.5032414 C125.853425,72.5370706 128.797354,75.1939993 133.900914,75.1939993 C137.38522,75.1939993 140.181858,73.9149115 141.556255,71.4056422 L141.752329,71.4056422 L141.752329,74.6033617 L145.87458,74.6033617 L145.87458,58.8611764 C145.87458,53.3516937 142.733639,50.0063147 136.452694,50.0063147 C130.416608,50.0063147 127.030809,53.5482594 126.834734,58.0739731 L130.956985,58.0739731 C131.153059,55.4179848 132.968388,53.5482594 136.452694,53.5482594 C139.838494,53.5482594 141.556255,55.5656442 141.556255,58.468045 C141.556255,59.5994734 140.967094,59.8947922 138.415313,60.3368299 L133.70484,61.1240333 C128.110624,62.1078023 125.853425,64.5183185 125.853425,68.5032414 L125.853425,68.5032414 Z M141.556255,64.5681653 C141.556255,69.2904447 138.415313,71.6520547 134.686149,71.6520547 C131.643714,71.6520547 130.17175,70.1754606 130.17175,68.11011 C130.17175,66.0438188 131.349134,64.7148842 134.490075,64.1740934 L139.004474,63.3868901 C140.181858,63.1903244 141.0656,62.8460993 141.556255,62.2554617 L141.556255,64.5681653 Z" id="Fill-15"></path>
                <path d="M125.853425,30.417649 C125.853425,34.4514782 128.797354,37.1084069 133.900914,37.1084069 C137.38522,37.1084069 140.181858,35.8293191 141.556255,33.3200497 L141.752329,33.3200497 L141.752329,36.5177693 L145.87458,36.5177693 L145.87458,20.775584 C145.87458,15.2661013 142.733639,11.9207223 136.452694,11.9207223 C130.416608,11.9207223 127.030809,15.462667 126.834734,19.9883807 L130.956985,19.9883807 C131.153059,17.3323924 132.968388,15.462667 136.452694,15.462667 C139.838494,15.462667 141.556255,17.4800518 141.556255,20.3824526 C141.556255,21.513881 140.967094,21.8082593 138.415313,22.2512375 L133.70484,23.0384408 C128.110624,24.0222099 125.853425,26.4327261 125.853425,30.417649 L125.853425,30.417649 Z M141.556255,26.4825729 C141.556255,31.2048523 138.415313,33.5664623 134.686149,33.5664623 C131.643714,33.5664623 130.17175,32.0898682 130.17175,30.0245176 C130.17175,27.9582264 131.349134,26.6292918 134.490075,26.088501 L139.004474,25.3012977 C140.181858,25.104732 141.0656,24.7605069 141.556255,24.1698693 L141.556255,26.4825729 Z" id="Fill-17"></path>
                <path d="M151.075145,29.6305397 C151.075145,34.5503253 155.197396,37.1075605 160.889179,37.1075605 C166.974049,37.1075605 171.0963,34.5004785 171.0963,29.433974 C171.0963,25.104826 168.053865,23.6291725 164.422269,22.9896286 L159.90787,22.2024253 C157.061509,21.7105408 155.785619,20.7756781 155.785619,19.0047057 C155.785619,16.5452832 158.141325,15.2661953 161.085254,15.2661953 C164.226195,15.2661953 166.384888,16.6430958 166.384888,19.2012714 L170.507139,19.2012714 C170.507139,14.0849201 166.188814,11.9208164 161.085254,11.9208164 C155.785619,11.9208164 151.5658,14.6755577 151.5658,19.3978371 C151.5658,24.0223039 155.294964,25.350298 158.533474,25.8920294 L163.048811,26.6792327 C165.502085,27.1212704 166.777975,27.9583205 166.777975,29.8271054 C166.777975,32.2874685 164.86414,33.763122 160.889179,33.763122 C158.092541,33.763122 155.197396,32.4840342 155.197396,29.6305397 L151.075145,29.6305397 Z" id="Fill-19"></path>
                <path d="M151.57218,74.6032677 L155.890505,74.6032677 L155.890505,62.157555 C155.890505,56.9424506 158.736865,53.7447311 162.367523,53.7447311 C165.704539,53.7447311 167.863232,55.5157034 167.863232,60.6320547 L167.863232,74.6032677 L172.181557,74.6032677 L172.181557,60.0423576 C172.181557,52.5643963 168.060245,50.0062207 163.348833,50.0062207 C159.815743,50.0062207 157.263963,51.3840616 155.890505,54.138803 L155.69443,54.138803 L155.69443,50.5968583 L151.57218,50.5968583 L151.57218,74.6032677 Z" id="Fill-21"></path>
                <path d="M1.34249907,74.4001184 L5.85689848,74.4001184 L5.85689848,60.4289054 L13.5122391,60.4289054 C18.6157995,60.4289054 19.4498189,62.8394217 20.5784187,67.7093605 L22.1488893,74.4001184 L26.6632887,74.4001184 L25.0928181,67.7093605 C24.1602926,63.8231907 23.3262732,59.7404552 19.9892577,58.4613674 L19.9892577,58.2648017 C23.4247794,57.5265047 25.8780534,54.5253508 25.8780534,50.1971434 C25.8780534,44.2446824 21.8045866,40.5550784 14.2974744,40.5550784 L1.34249907,40.5550784 L1.34249907,74.4001184 Z M14.689623,44.4901544 C18.8118738,44.4901544 21.363654,46.6551987 21.363654,50.1971434 C21.363654,53.739088 19.0079481,56.4938294 14.689623,56.4938294 L5.85689848,56.4938294 L5.85689848,44.4901544 L14.689623,44.4901544 Z" id="Fill-23"></path>
            </g>
            <g id="Group" transform="translate(0.000000, 261.000000)" fill="#1530E4">
                <polygon id="Fill-1" points="0 2.67216495 0 6.50942842 11.7766533 6.50942842 11.7766533 36.517205 16.2910527 36.517205 16.2910527 6.50942842 28.0686442 6.50942842 28.0686442 2.67216495"></polygon>
                <path d="M41.9310025,82.0807587 C39.6250188,82.0807587 36.8771643,81.2935553 34.9633291,79.0796048 L32.2145365,82.0318524 C34.5214584,84.5401812 38.3979127,85.819269 41.8822185,85.819269 C48.4577433,85.819269 52.8736365,82.867962 52.8736365,74.6037379 L52.8736365,50.596388 L48.5553114,50.596388 L48.5553114,62.9442881 C48.5553114,68.2572051 45.9059631,71.4549247 42.2743671,71.4549247 C38.9373516,71.4549247 36.7786581,69.6839523 36.7786581,64.567601 L36.7786581,50.596388 L32.460333,50.596388 L32.460333,65.1582386 C32.460333,72.6352594 36.3855714,75.193435 41.0969832,75.193435 C44.630073,75.193435 47.1818532,73.8165346 48.5553114,71.0617932 L48.7513857,71.0617932 L48.7513857,74.6037379 C48.7513857,80.9004239 45.6113826,82.0807587 41.9310025,82.0807587" id="Fill-2"></path>
                <path d="M32.2394914,36.5176753 L36.5578165,36.5176753 L36.5578165,23.9732095 C36.5578165,18.8568582 39.4041772,15.6591387 43.0348351,15.6591387 C46.3718506,15.6591387 48.5305441,17.430111 48.5305441,22.5464623 L48.5305441,36.5176753 L52.8488692,36.5176753 L52.8488692,21.9567652 C52.8488692,14.4788039 48.7275566,11.9206283 44.0161447,11.9206283 C40.4830549,11.9206283 37.9312747,13.2984692 36.5578165,16.0532106 L36.3617422,16.0532106 C36.5578165,12.9043973 36.5578165,9.60886514 36.5578165,7.9855522 L36.5578165,0.507590955 L32.2394914,0.507590955 L32.2394914,36.5176753 Z" id="Fill-4"></path>
                <path d="M59.0746501,67.7161321 C59.0746501,72.6359177 63.1969009,75.1931529 68.8886842,75.1931529 C74.9735542,75.1931529 79.095805,72.5860709 79.095805,67.5195664 C79.095805,63.1904184 76.05337,61.7147649 72.421774,61.075221 L67.9073746,60.2880177 C65.0610138,59.7961332 63.7851237,58.8612705 63.7851237,57.0902981 C63.7851237,54.6308756 66.1408297,53.3517878 69.0847585,53.3517878 C72.2256997,53.3517878 74.3843932,54.7286882 74.3843932,57.2868638 L78.506644,57.2868638 C78.506644,52.1705125 74.1883189,50.0064088 69.0847585,50.0064088 C63.7851237,50.0064088 59.5653048,52.7611501 59.5653048,57.4834295 C59.5653048,62.1078963 63.2944689,63.4358904 66.5329782,63.9776218 L71.0483158,64.7648251 C73.5015898,65.2068628 74.7774799,66.0439129 74.7774799,67.9126978 C74.7774799,70.3730609 72.8636447,71.8487144 68.8886842,71.8487144 C66.0920456,71.8487144 63.1969009,70.5696266 63.1969009,67.7161321 L59.0746501,67.7161321 Z" id="Fill-7"></path>
                <path d="M57.3081051,24.5144706 C57.3081051,32.1889975 61.8225046,37.1078426 69.0847585,37.1078426 C75.9548638,37.1078426 80.8623499,32.1889975 80.8623499,24.5144706 C80.8623499,16.8399436 76.3479505,11.9210985 69.0847585,11.9210985 C62.2155913,11.9210985 57.3081051,16.8399436 57.3081051,24.5144706 M61.8225046,24.5144706 C61.8225046,19.2015536 64.7664333,15.6596089 69.0847585,15.6596089 C73.4030836,15.6596089 76.3479505,19.0049879 76.3479505,24.5144706 C76.3479505,29.8273876 73.4030836,33.3693323 69.0847585,33.3693323 C64.7664333,33.3693323 61.8225046,29.8273876 61.8225046,24.5144706" id="Fill-9"></path>
                <path d="M85.6217015,74.6032677 L89.9400266,74.6032677 L89.9400266,62.157555 C89.9400266,56.9424506 92.7863873,53.7447311 96.2209709,53.7447311 C99.3619121,53.7447311 101.128457,55.5157034 101.128457,60.2389233 L101.128457,74.6032677 L105.446782,74.6032677 L105.446782,62.1077082 C105.446782,56.9424506 108.292205,53.7447311 111.727726,53.7447311 C115.063804,53.7447311 116.634274,55.5157034 116.634274,60.2389233 L116.634274,74.6032677 L120.9526,74.6032677 L120.9526,59.6482857 C120.9526,52.5643963 117.223435,50.0062207 112.709036,50.0062207 C108.881366,50.0062207 106.280801,51.4818742 104.661547,54.8761595 C103.335935,51.3840616 100.490512,50.0062207 97.2022805,50.0062207 C93.865265,50.0062207 91.3134847,51.3840616 89.9400266,54.138803 L89.7439523,54.138803 L89.7439523,50.5968583 L85.6217015,50.5968583 L85.6217015,74.6032677 Z" id="Fill-11"></path>
                <path d="M85.6217015,36.5176753 L89.9400266,36.5176753 L89.9400266,24.0719626 C89.9400266,18.8568582 92.7863873,15.6591387 96.2209709,15.6591387 C99.3619121,15.6591387 101.128457,17.430111 101.128457,22.1533309 L101.128457,36.5176753 L105.446782,36.5176753 L105.446782,24.0221158 C105.446782,18.8568582 108.292205,15.6591387 111.727726,15.6591387 C115.063804,15.6591387 116.634274,17.430111 116.634274,22.1533309 L116.634274,36.5176753 L120.9526,36.5176753 L120.9526,21.5626933 C120.9526,14.4788039 117.223435,11.9206283 112.709036,11.9206283 C108.881366,11.9206283 106.280801,13.3962818 104.661547,16.7905671 C103.335935,13.2984692 100.490512,11.9206283 97.2022805,11.9206283 C93.865265,11.9206283 91.3134847,13.2984692 89.9400266,16.0532106 L89.7439523,16.0532106 L89.7439523,12.5112659 L85.6217015,12.5112659 L85.6217015,36.5176753 Z" id="Fill-13"></path>
                <path d="M125.853425,68.5032414 C125.853425,72.5370706 128.797354,75.1939993 133.900914,75.1939993 C137.38522,75.1939993 140.181858,73.9149115 141.556255,71.4056422 L141.752329,71.4056422 L141.752329,74.6033617 L145.87458,74.6033617 L145.87458,58.8611764 C145.87458,53.3516937 142.733639,50.0063147 136.452694,50.0063147 C130.416608,50.0063147 127.030809,53.5482594 126.834734,58.0739731 L130.956985,58.0739731 C131.153059,55.4179848 132.968388,53.5482594 136.452694,53.5482594 C139.838494,53.5482594 141.556255,55.5656442 141.556255,58.468045 C141.556255,59.5994734 140.967094,59.8947922 138.415313,60.3368299 L133.70484,61.1240333 C128.110624,62.1078023 125.853425,64.5183185 125.853425,68.5032414 L125.853425,68.5032414 Z M141.556255,64.5681653 C141.556255,69.2904447 138.415313,71.6520547 134.686149,71.6520547 C131.643714,71.6520547 130.17175,70.1754606 130.17175,68.11011 C130.17175,66.0438188 131.349134,64.7148842 134.490075,64.1740934 L139.004474,63.3868901 C140.181858,63.1903244 141.0656,62.8460993 141.556255,62.2554617 L141.556255,64.5681653 Z" id="Fill-15"></path>
                <path d="M125.853425,30.417649 C125.853425,34.4514782 128.797354,37.1084069 133.900914,37.1084069 C137.38522,37.1084069 140.181858,35.8293191 141.556255,33.3200497 L141.752329,33.3200497 L141.752329,36.5177693 L145.87458,36.5177693 L145.87458,20.775584 C145.87458,15.2661013 142.733639,11.9207223 136.452694,11.9207223 C130.416608,11.9207223 127.030809,15.462667 126.834734,19.9883807 L130.956985,19.9883807 C131.153059,17.3323924 132.968388,15.462667 136.452694,15.462667 C139.838494,15.462667 141.556255,17.4800518 141.556255,20.3824526 C141.556255,21.513881 140.967094,21.8082593 138.415313,22.2512375 L133.70484,23.0384408 C128.110624,24.0222099 125.853425,26.4327261 125.853425,30.417649 L125.853425,30.417649 Z M141.556255,26.4825729 C141.556255,31.2048523 138.415313,33.5664623 134.686149,33.5664623 C131.643714,33.5664623 130.17175,32.0898682 130.17175,30.0245176 C130.17175,27.9582264 131.349134,26.6292918 134.490075,26.088501 L139.004474,25.3012977 C140.181858,25.104732 141.0656,24.7605069 141.556255,24.1698693 L141.556255,26.4825729 Z" id="Fill-17"></path>
                <path d="M151.075145,29.6305397 C151.075145,34.5503253 155.197396,37.1075605 160.889179,37.1075605 C166.974049,37.1075605 171.0963,34.5004785 171.0963,29.433974 C171.0963,25.104826 168.053865,23.6291725 164.422269,22.9896286 L159.90787,22.2024253 C157.061509,21.7105408 155.785619,20.7756781 155.785619,19.0047057 C155.785619,16.5452832 158.141325,15.2661953 161.085254,15.2661953 C164.226195,15.2661953 166.384888,16.6430958 166.384888,19.2012714 L170.507139,19.2012714 C170.507139,14.0849201 166.188814,11.9208164 161.085254,11.9208164 C155.785619,11.9208164 151.5658,14.6755577 151.5658,19.3978371 C151.5658,24.0223039 155.294964,25.350298 158.533474,25.8920294 L163.048811,26.6792327 C165.502085,27.1212704 166.777975,27.9583205 166.777975,29.8271054 C166.777975,32.2874685 164.86414,33.763122 160.889179,33.763122 C158.092541,33.763122 155.197396,32.4840342 155.197396,29.6305397 L151.075145,29.6305397 Z" id="Fill-19"></path>
                <path d="M151.57218,74.6032677 L155.890505,74.6032677 L155.890505,62.157555 C155.890505,56.9424506 158.736865,53.7447311 162.367523,53.7447311 C165.704539,53.7447311 167.863232,55.5157034 167.863232,60.6320547 L167.863232,74.6032677 L172.181557,74.6032677 L172.181557,60.0423576 C172.181557,52.5643963 168.060245,50.0062207 163.348833,50.0062207 C159.815743,50.0062207 157.263963,51.3840616 155.890505,54.138803 L155.69443,54.138803 L155.69443,50.5968583 L151.57218,50.5968583 L151.57218,74.6032677 Z" id="Fill-21"></path>
                <path d="M1.34249907,74.4001184 L5.85689848,74.4001184 L5.85689848,60.4289054 L13.5122391,60.4289054 C18.6157995,60.4289054 19.4498189,62.8394217 20.5784187,67.7093605 L22.1488893,74.4001184 L26.6632887,74.4001184 L25.0928181,67.7093605 C24.1602926,63.8231907 23.3262732,59.7404552 19.9892577,58.4613674 L19.9892577,58.2648017 C23.4247794,57.5265047 25.8780534,54.5253508 25.8780534,50.1971434 C25.8780534,44.2446824 21.8045866,40.5550784 14.2974744,40.5550784 L1.34249907,40.5550784 L1.34249907,74.4001184 Z M14.689623,44.4901544 C18.8118738,44.4901544 21.363654,46.6551987 21.363654,50.1971434 C21.363654,53.739088 19.0079481,56.4938294 14.689623,56.4938294 L5.85689848,56.4938294 L5.85689848,44.4901544 L14.689623,44.4901544 Z" id="Fill-23"></path>
            </g>
        </g>
    </g>
</svg>