<?xml version="1.0" encoding="UTF-8" standalone="no"?>
<svg width="16px" height="16px" viewBox="0 0 16 16" version="1.1" xmlns="http://www.w3.org/2000/svg" xmlns:xlink="http://www.w3.org/1999/xlink">
    <!-- Generator: Sketch 39.1 (31720) - http://www.bohemiancoding.com/sketch -->
    <title>tumblr</title>
    <desc>Created with Sketch.</desc>
    <defs></defs>
    <g id="Page-1" stroke="none" stroke-width="1" fill="none" fill-rule="evenodd">
        <g id="tumblr" fill="#000000">
            <path fill="#fff" d="M9.48678342,15 C6.53149135,15 5.40802785,12.809 5.40802785,11.26025 L5.40802785,6.68575 L4,6.68575 L4,4.878 C6.11204177,4.112375 6.61851409,2.197 6.73860546,1.105 C6.74730773,1.02975 6.80561297,1 6.83868161,1 L8.87936473,1 L8.87936473,4.5665 L11.6640922,4.5665 L11.6640922,6.68575 L8.86805178,6.68575 L8.86805178,11.04325 C8.87675405,11.626875 9.08560862,12.42575 10.1490264,12.42575 L10.2073317,12.42575 C10.5763081,12.41525 11.0723376,12.30675 11.3299249,12.1825 L12,14.180125 C11.7493745,14.551125 10.6128576,14.981625 9.58947025,14.999125 L9.48504297,14.999125 L9.48678342,15 Z" id="Shape"></path>
        </g>
    </g>
</svg>
